<svg width="136" height="106" viewBox="0 0 136 106" fill="none" xmlns="http://www.w3.org/2000/svg">
<g clip-path="url(#clip0_17_3)">
<path d="M92.5704 96.5948C85.7636 93.6742 78.6977 89.9626 70.4897 91.7336C69.6155 91.7488 68.8446 92.2465 67.9946 92.2876C67.1445 92.2464 66.3736 91.7487 65.4994 91.7336C57.2958 89.9626 50.2299 93.6742 43.4165 96.5948C40.7968 97.6251 37.9702 98.0365 35.1616 97.7962C32.353 97.5559 29.6397 96.6706 27.2377 95.2106C30.2808 98.7984 34.5875 101.109 39.2868 101.675C43.986 102.241 48.7272 101.02 52.5515 98.2595C56.5732 96.0168 60.0369 91.6163 65.3369 93.2788C59.8162 95.8576 54.808 99.3956 50.5505 103.725L53.3422 106C56.6519 101.795 60.6991 98.213 65.2907 95.4257C66.107 94.8581 67.0244 94.4481 67.9945 94.2174C68.9656 94.4493 69.8841 94.8592 70.7028 95.4257C75.2919 98.2154 79.3381 101.797 82.6491 106L85.432 103.725C81.1789 99.3955 76.1743 95.8573 70.6566 93.2788C75.9522 91.6163 79.4159 96.0168 83.4376 98.2595C87.2619 101.02 92.0031 102.241 96.7024 101.675C101.402 101.109 105.708 98.7984 108.751 95.2106C106.349 96.6705 103.635 97.5558 100.826 97.7961C98.0174 98.0364 95.1905 97.6251 92.5704 96.5948Z" fill="#4B92D7"/>
<path d="M16.9393 29.3834C18.0162 27.0652 18.7358 24.6003 19.0742 22.071C18.6064 23.1415 17.9455 24.1187 17.1238 24.9548C13.2888 28.41 8.91573 31.9674 8.08109 36.9633C7.98735 37.6852 7.85612 38.4018 7.68793 39.1103C7.52759 39.1842 7.52759 38.993 7.45292 38.9495L7.91855 32.7496C8.08109 26.6888 5.15545 19.9761 8.6851 14.6564C8.56651 14.6304 8.50062 14.7238 8.41055 14.7759C4.98877 18.6353 3.08969 23.5869 3.06226 28.7207C2.61857 35.4226 6.96532 40.1491 7.45292 46.4576C8.4545 39.871 13.9631 35.1443 16.9393 29.3834Z" fill="#4B92D7"/>
<path d="M20.7486 78.2217C20.0984 76.5963 19.1034 75.0686 18.6136 73.3672C16.7313 65.5439 17.7504 56.5625 14.3833 49.3456C15.0115 53.4485 13.3598 57.0645 12.982 60.9674C12.6174 64.0538 13.1444 67.1793 14.5019 69.9814C14.7765 70.8007 15.5452 71.4982 15.7297 72.3022C14.6147 71.1498 13.6402 69.872 12.8261 68.495C8.98891 62.1844 0.712776 58.1488 0.161471 50.5213C-0.265815 53.8977 0.131104 57.3262 1.31896 60.5196C4.38958 69.0925 13.8254 73.5475 20.7486 78.2217Z" fill="#4B92D7"/>
<path d="M9.35766 30.6016C10.6536 28.2631 12.4005 26.1989 14.4995 24.5257C19.4502 21.0618 24.6316 16.2223 24.7063 10.0701C23.0963 14.4903 18.2598 16.3592 14.9827 19.3623C13.3383 20.9179 12.0481 22.8027 11.1983 24.8907L11.0774 24.7951C11.4772 23.0285 12.2899 21.4356 12.7533 19.6971C14.2205 15.0228 13.9196 9.39879 18.5189 6.26514C16.0749 6.92214 13.918 8.35804 12.3821 10.3505C8.54501 14.3273 8.94473 20.4664 9.47626 25.8317C9.59487 27.5007 9.24345 29.0609 9.35766 30.6016Z" fill="#4B92D7"/>
<path d="M10.6407 62.8937L10.9899 63.1785C10.491 60.6523 10.5465 58.0496 11.1524 55.5465C12.244 51.6958 13.5004 47.9341 14.335 43.9747C15.012 40.8317 15.2938 37.618 15.1741 34.4066C14.8129 36.0096 14.2243 37.5541 13.4258 38.9939C9.96855 44.1811 6.52456 50.3354 8.91646 56.9785C8.84838 57.0438 8.7803 57.1394 8.68584 57.0894C7.94161 54.7854 7.34448 52.4375 6.89795 50.0595C5.29017 43.8139 0.411896 38.6289 1.8286 31.4337C1.17231 33.0547 0.690104 34.7395 0.389933 36.4602C-0.254933 40.8658 0.159707 45.3597 1.60017 49.5769C3.08276 54.649 8.10598 58.2716 10.6407 62.8937Z" fill="#4B92D7"/>
<path d="M14.9829 17.2579C17.5637 14.861 20.4718 13.0226 22.7495 10.2344C25.1102 6.51299 27.9041 3.07847 31.0739 0.00134277C26.4175 1.79629 21.2142 3.50663 18.4006 8.36347C16.4304 10.9929 16.3842 14.4026 14.9829 17.2579Z" fill="#4B92D7"/>
<path d="M128.071 32.7493L128.532 38.9492C128.466 38.9949 128.466 39.184 128.299 39.1122C128.095 38.4168 128.047 37.6779 127.908 36.9651C127.074 31.9693 122.696 28.4118 118.866 24.9566C118.044 24.1198 117.383 23.1428 116.913 22.0729C117.252 24.6019 117.974 27.0662 119.053 29.3833C122.031 35.1463 127.531 39.8706 128.532 46.4595C129.022 40.1488 133.369 35.4244 132.925 28.7182C132.901 23.5852 131.004 18.6336 127.581 14.7756C127.489 14.7235 127.421 14.6278 127.3 14.6583C130.834 19.9759 127.908 26.6864 128.071 32.7493Z" fill="#4B92D7"/>
<path d="M129.091 50.0597C128.642 52.4367 128.044 54.7839 127.301 57.0875C127.211 57.1398 127.139 57.0442 127.073 56.9789C129.465 50.3357 126.023 44.1816 122.561 38.9943C121.765 37.5535 121.178 36.0094 120.815 34.407C120.695 37.6184 120.977 40.8321 121.654 43.9751C122.491 47.9345 123.747 51.6962 124.835 55.5468C125.44 58.0492 125.496 60.6509 124.999 63.1766L125.353 62.8941C127.885 58.272 132.904 54.6494 134.391 49.5773C135.83 45.3596 136.244 40.8661 135.601 36.4604C135.298 34.7401 134.814 33.0556 134.158 31.4341C135.575 38.6292 130.695 43.8143 129.091 50.0597Z" fill="#4B92D7"/>
<path d="M123.233 19.6978C123.703 21.4342 124.515 23.0272 124.911 24.796L124.796 24.8895C123.943 22.8018 122.651 20.9174 121.005 19.3611C117.724 16.3578 112.885 14.489 111.284 10.0689C111.354 16.2209 116.538 21.0627 121.493 24.5267C123.589 26.2007 125.333 28.2649 126.626 30.6026C126.747 29.0619 126.393 27.4908 126.512 25.8327C127.045 20.4651 127.445 14.3283 123.604 10.3494C122.07 8.35818 119.917 6.92233 117.476 6.26392C122.068 9.39969 121.772 15.0236 123.233 19.6978Z" fill="#4B92D7"/>
<path d="M113.238 10.2331C115.515 13.0235 118.421 14.8618 121.004 17.2567C119.612 14.4033 119.568 10.9938 117.587 8.36427C114.777 3.50529 109.563 1.79497 104.918 0C108.084 3.07927 110.876 6.51352 113.238 10.2331Z" fill="#4B92D7"/>
<path d="M111.683 82.703C110.726 83.5579 109.677 84.3043 108.553 84.9285V84.9132C108.331 85.0415 108.116 85.1587 107.896 85.2587L107.821 85.1848C107.922 85.1001 108.021 85.0088 108.124 84.9241V84.9132C109.643 83.6699 110.973 82.2172 112.074 80.5996C115.865 75.3603 114.545 68.0413 117.374 62.4129C114.773 65.3472 112.591 68.6207 110.89 72.1419C109.15 76.3773 108.221 81.0299 105.62 84.898V84.9132C104.709 86.2701 103.594 87.482 102.315 88.5074C107.277 86.895 112.968 87.045 117.703 84.9132C118.524 84.5484 119.309 84.1082 120.047 83.5985C125.652 80.1888 130.649 74.3975 131.694 68.0412C127.837 76.7031 118.173 77.4203 111.683 82.703Z" fill="#4B92D7"/>
<path d="M135.836 50.5205C135.276 58.1481 127 62.1836 123.161 68.4944C122.347 69.872 121.372 71.1506 120.257 72.3038C120.446 71.4976 121.212 70.8021 121.494 69.9807C122.845 67.1768 123.369 64.0522 123.005 60.9666C122.629 57.0638 120.982 53.4499 121.61 49.345C118.243 56.5618 119.258 65.5432 117.375 73.3663C116.748 75.0198 116.034 76.6402 115.238 78.2211C122.168 73.5467 131.604 69.0919 134.674 60.5191C135.862 57.3255 136.26 53.8973 135.836 50.5205Z" fill="#4B92D7"/>
<path d="M97.2257 90.679C96.0981 90.9947 94.9292 91.1427 93.7575 91.118C94.7328 90.4879 96.1099 90.5617 97.1818 90.0076C99.7229 89.0644 101.846 87.2645 103.178 84.9247V84.9138C104.964 82.0953 106.128 78.7487 108.102 76.1302C104.421 78.7445 100.987 81.6829 97.8407 84.9095V84.9138C97.1378 85.5701 96.4306 86.2415 95.7146 86.9152C92.7405 89.3068 89.1782 90.8748 85.3914 91.4591C86.3007 91.7787 87.4823 91.6917 88.462 91.9373C95.2248 93.5998 102.756 96.2921 109.941 93.8779C114.717 92.3436 118.777 89.1623 121.38 84.9138C121.516 84.6791 121.646 84.4401 121.771 84.1988C121.553 84.4466 121.329 84.6922 121.107 84.9138C114.863 91.0138 105.186 88.9167 97.2257 90.679Z" fill="#4B92D7"/>
<path d="M47.5285 91.9387C48.506 91.6911 49.6898 91.778 50.5991 91.4563C46.8112 90.8751 43.2476 89.3076 40.2738 86.9146C39.5555 86.2431 38.8505 85.5695 38.1498 84.9153V84.9111C35.0034 81.6842 31.5689 78.7451 27.8881 76.1295C29.8583 78.7503 31.018 82.0947 32.8081 84.9153V84.924C34.1405 87.2666 36.2677 89.0671 38.8131 90.0069C39.8761 90.561 41.2555 90.4871 42.2285 91.1173C41.0592 91.1416 39.8926 90.9944 38.7669 90.6806C30.8049 88.9182 21.1098 91.0283 14.8852 84.9153C14.6589 84.6893 14.4371 84.4459 14.2196 84.1983C14.3404 84.4417 14.4745 84.6785 14.6084 84.9153C17.2228 89.1543 21.2795 92.3319 26.0495 93.8772C33.2319 96.2937 40.7614 93.5991 47.5285 91.9387Z" fill="#4B92D7"/>
<path d="M18.2906 84.9141C23.0305 87.0395 28.7148 86.8961 33.6744 88.5085C32.3942 87.4835 31.2796 86.2715 30.3687 84.9141V84.8967C27.7682 81.0287 26.8303 76.3782 25.0951 72.1406C23.3965 68.6185 21.2154 65.3447 18.6135 62.4117C21.4469 68.0422 20.1202 75.3612 23.9135 80.6005C25.0189 82.2158 26.35 83.6681 27.8671 84.9141V84.9229C27.9659 85.0097 28.0626 85.0989 28.168 85.1857L28.0933 85.2598C27.8737 85.1576 27.6496 85.0402 27.4344 84.9141L27.4673 84.9381C26.3346 84.3086 25.2741 83.5596 24.3045 82.7041C17.8228 77.4191 8.15197 76.7042 4.29504 68.0421C5.34055 74.3963 10.3396 80.1898 15.9405 83.5973C16.6789 84.1106 17.4659 84.5516 18.2906 84.9141Z" fill="#4B92D7"/>
<path d="M67.9952 81.9579C75.6996 81.9583 83.244 79.7829 89.742 75.6875C96.24 71.5921 101.421 65.7467 104.678 58.8383L95.5053 54.6096C92.5859 60.8043 87.6179 65.8284 81.422 68.8516C75.2261 71.8748 68.1731 72.7163 61.4285 71.2371C54.6838 69.7578 48.651 66.0463 44.3268 60.7158C40.0026 55.3853 37.6458 48.7548 37.6458 41.9197C37.6458 35.0847 40.0026 28.4542 44.3268 23.1236C48.651 17.7931 54.6838 14.0816 61.4285 12.6024C68.1731 11.1231 75.2261 11.9646 81.422 14.9879C87.6179 18.0111 92.5859 23.0351 95.5053 29.2299L104.678 25.0076C101.614 18.5017 96.839 12.9303 90.8527 8.87625C84.8664 4.82224 77.8887 2.43476 70.65 1.96367C63.4113 1.49258 56.1777 2.95521 49.7062 6.19848C43.2348 9.44175 37.7634 14.3464 33.8648 20.3991C29.9661 26.4519 27.7836 33.4301 27.5455 40.6036C27.3074 47.777 29.0226 54.8819 32.5115 61.1746C36.0004 67.4674 41.1348 72.7166 47.3773 76.3729C53.6197 80.0292 60.7408 81.9582 67.9952 81.9579Z" fill="#4B92D7"/>
<path d="M67.9951 28.9084C70.11 28.9079 72.1937 29.4122 74.0696 30.3784C75.9455 31.3446 77.5582 32.7442 78.7708 34.4585L86.2275 29.293C83.5129 25.4537 79.6316 22.5709 75.1477 21.0634C70.6638 19.5559 65.8108 19.5023 61.294 20.9102C56.7772 22.3182 52.8318 25.1145 50.0311 28.8927C47.2304 32.671 45.7203 37.2344 45.7203 41.9198C45.7203 46.6052 47.2304 51.1686 50.0311 54.9469C52.8318 58.7251 56.7772 61.5214 61.294 62.9294C65.8108 64.3373 70.6638 64.2837 75.1477 62.7762C79.6316 61.2687 83.5129 58.3859 86.2275 54.5467L78.7707 49.379C77.4751 51.2114 75.724 52.6824 73.6864 53.6503C71.6489 54.6181 69.3936 55.0501 67.1382 54.9046C64.8828 54.759 62.7033 54.0408 60.8101 52.8192C58.9169 51.5976 57.3739 49.914 56.3299 47.9306C55.2858 45.9473 54.7761 43.7312 54.8498 41.4961C54.9234 39.2611 55.5781 37.0826 56.7505 35.1707C57.9229 33.2589 59.5735 31.6783 61.5431 30.5813C63.5128 29.4844 65.7349 28.9082 67.9951 28.9084Z" fill="#4B92D7"/>
</g>
<defs>
<clipPath id="clip0_17_3">
<rect width="136" height="106" fill="white"/>
</clipPath>
</defs>
</svg>
