<svg width="120" height="94" viewBox="0 0 120 94" fill="none" xmlns="http://www.w3.org/2000/svg">
<g clip-path="url(#clip0_1_3)">
<path d="M81.6798 85.6596C75.6738 83.0696 69.4392 79.7782 62.1968 81.3486C61.4255 81.3622 60.7453 81.8035 59.9952 81.84C59.2452 81.8034 58.565 81.3621 57.7936 81.3486C50.5551 79.7782 44.3205 83.0696 38.3088 85.6596C35.9972 86.5732 33.5032 86.938 31.025 86.7249C28.5468 86.5118 26.1528 85.7267 24.0333 84.4321C26.7184 87.6137 30.5184 89.6626 34.6648 90.1646C38.8113 90.6665 42.9947 89.5839 46.369 87.1358C49.9175 85.147 52.9738 81.2447 57.6502 82.7189C52.779 85.0058 48.3601 88.1433 44.6035 91.9823L47.0667 94C49.987 90.2709 53.5581 87.0946 57.6095 84.6228C58.3298 84.1195 59.1392 83.7559 59.9952 83.5513C60.852 83.757 61.6625 84.1204 62.3848 84.6228C66.4341 87.0967 70.0042 90.2727 72.9257 94L75.3812 91.9823C71.6285 88.1432 67.2126 85.0055 62.3441 82.7189C67.0167 81.2447 70.0729 85.147 73.6215 87.1358C76.9958 89.5839 81.1792 90.6665 85.3256 90.1646C89.4721 89.6626 93.2721 87.6137 95.9572 84.4321C93.8374 85.7267 91.443 86.5118 88.9645 86.7249C86.486 86.938 83.9917 86.5732 81.6798 85.6596Z" fill="white"/>
<path d="M14.9465 26.057C15.8967 24.0012 16.5316 21.8154 16.8302 19.5724C16.4174 20.5217 15.8343 21.3882 15.1093 22.1297C11.7254 25.1937 7.86684 28.3484 7.1304 32.7788C7.04768 33.4189 6.9319 34.0544 6.78349 34.6827C6.64202 34.7482 6.64202 34.5787 6.57613 34.5401L6.98698 29.0421C7.1304 23.6674 4.54895 17.7147 7.66335 12.9972C7.55871 12.9741 7.50057 13.057 7.4211 13.1031C4.40189 16.5257 2.72622 20.9167 2.70201 25.4693C2.31053 31.4125 6.14589 35.6039 6.57613 41.1983C7.45988 35.3573 12.3204 31.1657 14.9465 26.057Z" fill="white"/>
<path d="M18.3076 69.3664C17.7339 67.925 16.856 66.5702 16.4238 65.0614C14.7629 58.1238 15.6622 50.1592 12.6912 43.7593C13.2455 47.3977 11.7881 50.6044 11.4547 54.0655C11.133 56.8024 11.598 59.574 12.7958 62.0589C13.0381 62.7855 13.7164 63.404 13.8792 64.117C12.8954 63.0951 12.0355 61.962 11.3171 60.7409C7.9314 55.1446 0.628928 51.5659 0.142482 44.8019C-0.234535 47.7961 0.115688 50.8365 1.1638 53.6683C3.87317 61.2707 12.1989 65.2214 18.3076 69.3664Z" fill="white"/>
<path d="M8.2568 27.1372C9.40023 25.0635 10.9416 23.2329 12.7937 21.7492C17.162 18.6774 21.7338 14.3858 21.7997 8.93009C20.3791 12.8499 16.1116 14.5072 13.2201 17.1703C11.7691 18.5499 10.6307 20.2212 9.88085 22.0729L9.77426 21.9881C10.127 20.4214 10.8441 19.0089 11.253 17.4673C12.5476 13.3221 12.2821 8.33476 16.3403 5.55586C14.1838 6.13848 12.2806 7.41184 10.9255 9.17874C7.53975 12.7053 7.89244 18.1494 8.36144 22.9074C8.4661 24.3874 8.15602 25.771 8.2568 27.1372Z" fill="white"/>
<path d="M9.38879 55.7736L9.69693 56.0262C9.25677 53.786 9.30568 51.4779 9.84035 49.2582C10.8035 45.8434 11.9121 42.5076 12.6485 38.9964C13.2459 36.2092 13.4945 33.3593 13.3889 30.5115C13.0702 31.9331 12.5509 33.3026 11.8463 34.5795C8.79576 39.1795 5.75694 44.637 7.86744 50.5281C7.80737 50.586 7.7473 50.6708 7.66395 50.6264C7.00728 48.5833 6.4804 46.5012 6.0864 44.3924C4.66777 38.8539 0.363414 34.2558 1.61344 27.8752C1.03437 29.3126 0.608891 30.8067 0.344034 32.3326C-0.224965 36.2394 0.140894 40.2246 1.41189 43.9644C2.72006 48.4623 7.15231 51.6748 9.38879 55.7736Z" fill="white"/>
<path d="M13.2202 15.3041C15.4974 13.1786 18.0634 11.5483 20.0731 9.07581C22.1561 5.77565 24.6213 2.72995 27.4182 0.00117493C23.3096 1.59292 18.7184 3.10964 16.2358 7.41665C14.4974 9.74836 14.4567 12.7721 13.2202 15.3041Z" fill="white"/>
<path d="M113.004 29.0419L113.411 34.5399C113.353 34.5804 113.353 34.7481 113.205 34.6844C113.025 34.0677 112.983 33.4125 112.86 32.7804C112.124 28.3501 108.262 25.1954 104.882 22.1314C104.157 21.3893 103.573 20.5229 103.159 19.5741C103.458 21.8168 104.094 24.0021 105.046 26.0569C107.674 31.1675 112.527 35.357 113.411 41.1999C113.843 35.6037 117.678 31.4141 117.287 25.4671C117.266 20.9152 115.591 16.5241 112.572 13.1029C112.49 13.0567 112.43 12.9719 112.324 12.9989C115.442 17.7145 112.86 23.6653 113.004 29.0419Z" fill="white"/>
<path d="M113.904 44.3926C113.508 46.5005 112.98 48.5819 112.325 50.6248C112.245 50.6712 112.181 50.5864 112.123 50.5285C114.233 44.6374 111.197 39.1799 108.142 34.5799C107.44 33.3022 106.921 31.9328 106.602 30.5119C106.496 33.3597 106.745 36.2096 107.342 38.9968C108.08 42.508 109.189 45.8438 110.148 49.2586C110.682 51.4776 110.732 53.7848 110.293 56.0245L110.606 55.774C112.84 51.6752 117.268 48.4627 118.58 43.9648C119.85 40.2246 120.215 36.2398 119.648 32.3329C119.38 30.8072 118.954 29.3134 118.375 27.8755C119.625 34.2561 115.319 38.8542 113.904 44.3926Z" fill="white"/>
<path d="M108.735 17.4679C109.149 19.0077 109.866 20.4204 110.215 21.9889L110.114 22.0718C109.361 20.2205 108.221 18.5494 106.769 17.1693C103.874 14.5059 99.6046 12.8487 98.1917 8.92904C98.2537 14.3846 102.827 18.6782 107.2 21.7501C109.049 23.2346 110.588 25.0651 111.729 27.1381C111.835 25.7719 111.523 24.3786 111.628 22.9083C112.099 18.1483 112.452 12.7062 109.062 9.17776C107.709 7.41198 105.809 6.13868 103.655 5.55481C107.707 8.33559 107.446 13.3229 108.735 17.4679Z" fill="white"/>
<path d="M99.9156 9.07463C101.925 11.5491 104.489 13.1793 106.768 15.3031C105.54 12.7727 105.501 9.7492 103.753 7.41737C101.274 3.10847 96.6733 1.59176 92.5744 0C95.3681 2.73068 97.8318 5.77614 99.9156 9.07463Z" fill="white"/>
<path d="M98.5435 73.3405C97.6998 74.0985 96.7734 74.7605 95.7818 75.3139V75.3004C95.5861 75.4142 95.3961 75.5181 95.2023 75.6068L95.1364 75.5413C95.2256 75.4661 95.3128 75.3852 95.4039 75.3101V75.3004C96.7437 74.1979 97.9172 72.9097 98.8884 71.4752C102.233 66.8289 101.069 60.3385 103.565 55.3473C101.27 57.9494 99.345 60.8523 97.8438 63.9749C96.3089 67.7308 95.4891 71.8567 93.1945 75.2869V75.3004C92.3903 76.5037 91.4069 77.5784 90.2779 78.4878C94.6559 77.0578 99.6773 77.1909 103.856 75.3004C104.58 74.9769 105.272 74.5866 105.924 74.1345C110.869 71.1109 115.278 65.9752 116.201 60.3385C112.798 68.0198 104.27 68.6558 98.5435 73.3405Z" fill="white"/>
<path d="M119.856 44.8012C119.361 51.5653 112.059 55.1439 108.671 60.7403C107.953 61.962 107.093 63.0958 106.109 64.1185C106.276 63.4035 106.952 62.7868 107.2 62.0583C108.393 59.5719 108.855 56.801 108.534 54.0647C108.202 50.6038 106.749 47.399 107.303 43.7587C104.332 50.1586 105.227 58.1232 103.566 65.0607C103.013 66.527 102.383 67.9639 101.681 69.3658C107.795 65.2207 116.121 61.2702 118.83 53.6678C119.878 50.8358 120.229 47.7957 119.856 44.8012Z" fill="white"/>
<path d="M85.7874 80.4135C84.7924 80.6934 83.7611 80.8246 82.7273 80.8028C83.5878 80.244 84.8029 80.3095 85.7486 79.8181C87.9908 78.9817 89.8644 77.3855 91.0395 75.3106V75.301C92.615 72.8015 93.6422 69.8337 95.3845 67.5117C92.1365 69.8301 89.106 72.4358 86.3301 75.2971V75.301C85.7099 75.883 85.0858 76.4783 84.4541 77.0757C81.8298 79.1966 78.6866 80.5871 75.3453 81.1053C76.1477 81.3886 77.1903 81.3115 78.0547 81.5293C84.0219 83.0036 90.6674 85.3911 97.0066 83.2502C101.221 81.8896 104.803 79.0684 107.1 75.301C107.22 75.0928 107.334 74.8808 107.445 74.6669C107.253 74.8866 107.055 75.1044 106.86 75.301C101.35 80.7104 92.8108 78.8506 85.7874 80.4135Z" fill="white"/>
<path d="M41.937 81.5306C42.7994 81.311 43.844 81.3881 44.6463 81.1028C41.304 80.5873 38.1597 79.1973 35.5357 77.0753C34.9019 76.4798 34.2798 75.8824 33.6616 75.3023V75.2985C30.8854 72.437 27.8549 69.8306 24.6072 67.5111C26.3456 69.8352 27.3688 72.801 28.9483 75.3023V75.31C30.124 77.3874 32.0009 78.9841 34.2468 79.8175C35.1848 80.3088 36.4019 80.2433 37.2604 80.8022C36.2287 80.8237 35.1994 80.6932 34.2061 80.4149C27.1808 78.852 18.6264 80.7233 13.134 75.3023C12.9344 75.1018 12.7387 74.886 12.5467 74.6664C12.6533 74.8822 12.7716 75.0923 12.8898 75.3023C15.1967 79.0614 18.7761 81.8793 22.9849 83.2496C29.3223 85.3925 35.9659 83.003 41.937 81.5306Z" fill="white"/>
<path d="M16.1387 75.3012C20.321 77.186 25.3366 77.0588 29.7126 78.4887C28.5831 77.5798 27.5996 76.5049 26.7959 75.3012V75.2858C24.5013 71.8556 23.6738 67.7316 22.1427 63.9738C20.644 60.8504 18.7195 57.9472 16.4236 55.3462C18.9237 60.3393 17.7531 66.8297 21.1001 71.476C22.0755 72.9084 23.25 74.1963 24.5886 75.3012V75.309C24.6758 75.386 24.7611 75.4651 24.8541 75.5421L24.7882 75.6077C24.5944 75.5172 24.3967 75.4131 24.2068 75.3012L24.2359 75.3225C23.2364 74.7643 22.3007 74.1 21.4451 73.3414C15.726 68.6547 7.19289 68.0207 3.78972 60.3393C4.71222 65.9741 9.12316 71.1118 14.0651 74.1334C14.7166 74.5886 15.411 74.9798 16.1387 75.3012Z" fill="white"/>
<path d="M59.9957 72.6797C66.7937 72.68 73.4506 70.7509 79.1841 67.1191C84.9176 63.4873 89.4895 58.3037 92.3626 52.1774L84.2694 48.4274C81.6934 53.9208 77.3099 58.3761 71.8429 61.0571C66.3759 63.7381 60.1528 64.4843 54.2016 63.1725C48.2504 61.8607 42.9273 58.5694 39.1119 53.8423C35.2964 49.1153 33.2169 43.2354 33.2169 37.1741C33.2169 31.1128 35.2964 25.2329 39.1119 20.5059C42.9273 15.7788 48.2504 12.4875 54.2016 11.1757C60.1528 9.86391 66.3759 10.6102 71.8429 13.2911C77.3099 15.9721 81.6934 20.4274 84.2694 25.9208L92.3626 22.1765C89.6593 16.4072 85.4462 11.4665 80.1641 7.87139C74.8821 4.27633 68.7253 2.15913 62.3382 1.74137C55.9511 1.32362 49.5685 2.62066 43.8584 5.49677C38.1483 8.37287 33.3206 12.7223 29.8807 18.0898C26.4407 23.4573 24.5149 29.6456 24.3048 36.0069C24.0948 42.3683 25.6081 48.6689 28.6866 54.2492C31.7651 59.8296 36.2954 64.4845 41.8035 67.7269C47.3115 70.9693 53.5948 72.6799 59.9957 72.6797Z" fill="white"/>
<path d="M59.9957 25.6357C61.8618 25.6353 63.7004 26.0825 65.3556 26.9393C67.0108 27.7961 68.4337 29.0373 69.5037 30.5575L76.0832 25.9768C73.6879 22.5722 70.2632 20.0157 66.3069 18.6789C62.3505 17.342 58.0684 17.2944 54.083 18.543C50.0975 19.7916 46.6163 22.2713 44.1451 25.6219C41.6739 28.9724 40.3415 33.0191 40.3415 37.1742C40.3415 41.3292 41.6739 45.3759 44.1451 48.7264C46.6163 52.077 50.0975 54.5567 54.083 55.8053C58.0684 57.0539 62.3505 57.0063 66.3069 55.6694C70.2632 54.3326 73.6879 51.7761 76.0832 48.3715L69.5036 43.7889C68.3604 45.4138 66.8153 46.7184 65.0175 47.5767C63.2197 48.4349 61.2297 48.818 59.2396 48.6889C57.2495 48.5598 55.3265 47.9229 53.656 46.8397C51.9856 45.7564 50.6241 44.2633 49.7029 42.5045C48.7817 40.7457 48.3319 38.7804 48.3969 36.7984C48.4619 34.8164 49.0395 32.8845 50.074 31.1891C51.1085 29.4937 52.5649 28.092 54.3028 27.1193C56.0407 26.1465 58.0014 25.6356 59.9957 25.6357Z" fill="white"/>
</g>
<defs>
<clipPath id="clip0_1_3">
<rect width="120" height="94" fill="white"/>
</clipPath>
</defs>
</svg>
