<svg width="388" height="304" viewBox="0 0 388 304" fill="none" xmlns="http://www.w3.org/2000/svg">
<g clip-path="url(#clip0_11_35)">
<path d="M264.098 277.027C244.679 268.65 224.52 258.006 201.103 263.085C198.609 263.129 196.41 264.556 193.985 264.674C191.56 264.556 189.36 263.129 186.866 263.085C163.462 258.006 143.303 268.65 123.865 277.027C116.391 279.982 108.327 281.161 100.314 280.472C92.3013 279.783 84.5606 277.244 77.7076 273.057C86.3895 283.346 98.6762 289.973 112.083 291.596C125.49 293.219 139.016 289.718 149.926 281.801C161.4 275.369 171.282 262.749 186.402 267.517C170.652 274.912 156.364 285.059 144.218 297.475L152.182 304C161.625 291.94 173.171 281.668 186.271 273.674C188.6 272.046 191.217 270.87 193.984 270.208C196.755 270.874 199.376 272.049 201.711 273.674C214.804 281.674 226.347 291.946 235.793 304L243.733 297.475C231.599 285.059 217.321 274.911 201.579 267.517C216.687 262.749 226.569 275.369 238.043 281.801C248.953 289.718 262.48 293.219 275.886 291.596C289.293 289.973 301.58 283.346 310.262 273.057C303.408 277.244 295.666 279.783 287.652 280.472C279.638 281.161 271.573 279.981 264.098 277.027Z" fill="#4B92D7"/>
<path d="M48.3269 84.2694C51.3993 77.6208 53.4523 70.5519 54.4177 63.298C53.083 66.3679 51.1975 69.1704 48.8533 71.5684C37.9123 81.4775 25.4361 91.6799 23.055 106.008C22.7875 108.078 22.4132 110.133 21.9333 112.165C21.4759 112.377 21.4759 111.829 21.2629 111.704L22.5913 93.9234C23.055 76.5415 14.7083 57.29 24.7782 42.0333C24.4398 41.9588 24.2519 42.2268 23.9949 42.3761C14.2328 53.4447 8.8148 67.6453 8.73654 82.3687C7.47075 101.589 19.8717 115.145 21.2629 133.237C24.1203 114.347 39.836 100.791 48.3269 84.2694Z" fill="#4B92D7"/>
<path d="M59.1945 224.334C57.3397 219.672 54.5011 215.291 53.1037 210.411C47.7335 187.975 50.641 162.217 41.0349 141.52C42.8271 153.286 38.1148 163.657 37.037 174.85C35.9967 183.701 37.5003 192.665 41.3733 200.701C42.1565 203.051 44.3497 205.051 44.8761 207.357C41.6951 204.052 38.9148 200.388 36.5921 196.439C25.6449 178.34 2.03359 166.766 0.460749 144.891C-0.758273 154.575 0.374114 164.407 3.76301 173.566C12.5233 198.152 39.4432 210.929 59.1945 224.334Z" fill="#4B92D7"/>
<path d="M26.697 87.763C30.3941 81.0565 35.3779 75.1363 41.3663 70.3377C55.4905 60.4035 70.2726 46.5244 70.4857 28.8803C65.8925 41.5571 52.0941 46.9168 42.7449 55.5296C38.0534 59.991 34.3726 65.3963 31.9481 71.3847L31.6034 71.1105C32.7439 66.0438 35.0624 61.4756 36.3846 56.4899C40.5705 43.0842 39.712 26.955 52.8336 17.9679C45.8608 19.8521 39.7072 23.9702 35.3256 29.6844C24.3785 41.0896 25.5189 58.6959 27.0353 74.0834C27.3737 78.8699 26.3711 83.3444 26.697 87.763Z" fill="#4B92D7"/>
<path d="M30.3571 180.374L31.3534 181.191C29.9302 173.946 30.0883 166.482 31.8171 159.303C34.9314 148.26 38.5157 137.471 40.8969 126.116C42.8283 117.102 43.6323 107.886 43.2906 98.6755C42.2603 103.273 40.581 107.702 38.3029 111.832C28.4396 126.708 18.6141 144.358 25.438 163.41C25.2438 163.597 25.0495 163.872 24.7801 163.728C22.6568 157.121 20.9532 150.387 19.6793 143.567C15.0924 125.655 1.17499 110.785 5.21676 90.1495C3.34441 94.7984 1.9687 99.6302 1.11233 104.565C-0.727434 117.2 0.45551 130.088 4.56506 142.183C8.7948 156.729 23.1257 167.119 30.3571 180.374Z" fill="#4B92D7"/>
<path d="M42.7455 49.4943C50.1084 42.6203 58.4049 37.3477 64.903 29.3515C71.6379 18.6787 79.6088 8.82875 88.6522 0.00378418C75.3677 5.15156 60.5229 10.0567 52.4958 23.9857C46.875 31.5266 46.7433 41.3054 42.7455 49.4943Z" fill="#4B92D7"/>
<path d="M365.379 93.9226L366.695 111.703C366.507 111.834 366.507 112.377 366.031 112.171C365.448 110.177 365.31 108.057 364.915 106.013C362.534 91.6855 350.046 81.4831 339.117 71.5737C336.774 69.1739 334.887 66.372 333.547 63.3036C334.514 70.5565 336.572 77.6238 339.65 84.2691C348.147 100.797 363.838 114.346 366.695 133.242C368.093 115.144 380.494 101.595 379.228 82.3618C379.16 67.6406 373.745 53.4398 363.982 42.3753C363.719 42.2258 363.525 41.9516 363.18 42.0391C373.262 57.2893 364.915 76.5346 365.379 93.9226Z" fill="#4B92D7"/>
<path d="M368.29 143.568C367.009 150.385 365.303 157.116 363.183 163.723C362.926 163.873 362.719 163.598 362.531 163.411C369.355 144.359 359.536 126.709 349.66 111.833C347.389 107.701 345.712 103.272 344.678 98.6767C344.337 107.887 345.141 117.103 347.072 126.117C349.46 137.473 353.044 148.261 356.146 159.304C357.873 166.481 358.034 173.942 356.616 181.186L357.625 180.375C364.85 167.12 379.168 156.731 383.41 142.184C387.514 130.088 388.696 117.201 386.863 104.566C385.996 99.6319 384.617 94.8009 382.746 90.1506C386.788 110.786 372.864 125.656 368.29 143.568Z" fill="#4B92D7"/>
<path d="M351.575 56.492C352.916 61.4716 355.235 66.0403 356.363 71.113L356.037 71.3812C353.601 65.3939 349.915 59.9896 345.221 55.5262C335.859 46.9128 322.055 41.5533 317.487 28.8769C317.687 46.5204 332.476 60.4062 346.612 70.3406C352.591 75.1416 357.567 81.0616 361.256 87.7659C361.601 83.3473 360.592 78.8415 360.931 74.0863C362.453 58.6924 363.594 41.0925 352.634 29.6812C348.26 23.9707 342.115 19.8527 335.151 17.9645C348.254 26.9576 347.408 43.0867 351.575 56.492Z" fill="#4B92D7"/>
<path d="M323.061 29.3477C329.559 37.3504 337.849 42.6224 345.218 49.4909C341.245 41.3076 341.12 31.5293 335.468 23.9881C327.453 10.0529 312.577 5.14783 299.324 0C308.357 8.83113 316.323 18.6803 323.061 29.3477Z" fill="#4B92D7"/>
<path d="M318.624 237.186C315.896 239.638 312.901 241.779 309.695 243.569V243.525C309.062 243.893 308.448 244.229 307.821 244.516L307.608 244.304C307.896 244.061 308.178 243.799 308.473 243.556V243.525C312.805 239.959 316.599 235.793 319.739 231.154C330.555 216.128 326.789 195.137 334.86 178.996C327.439 187.411 321.215 196.799 316.362 206.897C311.399 219.044 308.748 232.388 301.329 243.481V243.525C298.729 247.416 295.549 250.892 291.898 253.833C306.054 249.208 322.29 249.639 335.8 243.525C338.142 242.478 340.381 241.216 342.486 239.754C358.478 229.976 372.733 213.367 375.716 195.137C364.713 219.979 337.141 222.036 318.624 237.186Z" fill="#4B92D7"/>
<path d="M387.533 144.889C385.935 166.764 362.324 178.338 351.37 196.437C349.048 200.388 346.267 204.054 343.086 207.362C343.625 205.05 345.812 203.055 346.614 200.699C350.471 192.658 351.965 183.697 350.925 174.848C349.854 163.655 345.154 153.29 346.946 141.518C337.34 162.215 340.235 187.973 334.865 210.409C333.074 215.151 331.039 219.798 328.768 224.332C348.538 210.926 375.458 198.15 384.218 173.564C387.605 164.405 388.742 154.573 387.533 144.889Z" fill="#4B92D7"/>
<path d="M277.379 260.061C274.162 260.966 270.828 261.39 267.485 261.32C270.267 259.512 274.196 259.724 277.254 258.135C284.504 255.43 290.562 250.268 294.361 243.558V243.527C299.455 235.443 302.776 225.845 308.41 218.336C297.908 225.833 288.109 234.261 279.134 243.514V243.527C277.129 245.409 275.111 247.334 273.068 249.266C264.583 256.125 254.42 260.622 243.617 262.298C246.211 263.214 249.582 262.965 252.377 263.669C271.671 268.437 293.158 276.159 313.655 269.235C327.281 264.835 338.863 255.711 346.29 243.527C346.678 242.853 347.048 242.168 347.405 241.476C346.785 242.186 346.145 242.891 345.512 243.527C327.697 261.021 300.088 255.006 277.379 260.061Z" fill="#4B92D7"/>
<path d="M135.596 263.673C138.385 262.963 141.762 263.212 144.356 262.29C133.55 260.623 123.383 256.127 114.899 249.265C112.85 247.339 110.838 245.407 108.839 243.531V243.519C99.8626 234.264 90.0641 225.835 79.5631 218.334C85.184 225.85 88.4926 235.441 93.5996 243.531V243.556C97.4009 250.274 103.47 255.438 110.731 258.133C113.764 259.722 117.7 259.51 120.475 261.318C117.139 261.387 113.811 260.965 110.6 260.065C87.8845 255.011 60.2252 261.062 42.4665 243.531C41.8211 242.883 41.1883 242.184 40.5677 241.474C40.9124 242.172 41.2948 242.852 41.6768 243.531C49.1358 255.688 60.7093 264.801 74.3179 269.233C94.8086 276.163 116.29 268.435 135.596 263.673Z" fill="#4B92D7"/>
<path d="M52.1819 243.527C65.7045 249.623 81.9216 249.211 96.0709 253.836C92.4188 250.896 89.2387 247.42 86.6401 243.527V243.478C79.221 232.384 76.5451 219.047 71.5948 206.894C66.7488 196.793 60.5263 187.404 53.103 178.992C61.1865 195.14 57.4016 216.13 68.2238 231.156C71.3775 235.789 75.175 239.954 79.5031 243.527V243.552C79.7851 243.802 80.0608 244.057 80.3615 244.306L80.1485 244.519C79.5219 244.226 78.8827 243.889 78.2686 243.527L78.3626 243.596C75.131 241.791 72.1055 239.643 69.3392 237.189C50.8474 222.032 23.257 219.982 12.2534 195.14C15.2362 213.363 29.4982 229.978 45.4772 239.751C47.5837 241.223 49.829 242.488 52.1819 243.527Z" fill="#4B92D7"/>
<path d="M193.986 235.049C215.966 235.05 237.49 228.811 256.029 217.066C274.567 205.321 289.349 188.557 298.639 168.744L272.471 156.616C264.142 174.382 249.969 188.791 232.292 197.461C214.616 206.132 194.494 208.545 175.252 204.303C156.01 200.06 138.798 189.416 126.462 174.128C114.125 158.841 107.401 139.825 107.401 120.223C107.401 100.62 114.125 81.6044 126.462 66.3169C138.798 51.0294 156.01 40.3851 175.252 36.1427C194.494 31.9003 214.616 34.3137 232.292 42.9841C249.969 51.6545 264.142 66.063 272.471 83.8291L298.639 71.7198C289.898 53.0616 276.276 37.083 259.197 25.4564C242.119 13.8299 222.212 6.98273 201.56 5.63169C180.909 4.28064 160.272 8.47536 141.809 17.7768C123.346 27.0782 107.737 41.1444 96.6142 58.5032C85.4916 75.862 79.2649 95.8751 78.5856 116.448C77.9064 137.021 82.7997 157.397 92.7534 175.444C102.707 193.491 117.355 208.546 135.165 219.032C152.974 229.518 173.29 235.05 193.986 235.049Z" fill="#4B92D7"/>
<path d="M193.986 82.907C200.02 82.9057 205.965 84.3519 211.316 87.1229C216.668 89.8938 221.269 93.9078 224.728 98.8243L246.002 84.01C238.257 72.9994 227.184 64.7317 214.392 60.4083C201.6 56.0849 187.755 55.931 174.868 59.969C161.982 64.007 150.726 72.0265 142.736 82.8622C134.746 93.6979 130.438 106.785 130.438 120.223C130.438 133.66 134.746 146.748 142.736 157.583C150.726 168.419 161.982 176.439 174.868 180.477C187.755 184.515 201.6 184.361 214.392 180.037C227.184 175.714 238.257 167.446 246.002 156.436L224.728 141.615C221.032 146.87 216.036 151.089 210.223 153.865C204.41 156.641 197.976 157.88 191.541 157.462C185.107 157.045 178.889 154.985 173.488 151.481C168.087 147.978 163.684 143.15 160.706 137.461C157.727 131.773 156.273 125.418 156.483 119.008C156.693 112.598 158.561 106.35 161.906 100.867C165.251 95.384 169.96 90.8509 175.579 87.705C181.198 84.5591 187.538 82.9066 193.986 82.907Z" fill="#4B92D7"/>
</g>
<defs>
<clipPath id="clip0_11_35">
<rect width="388" height="304" fill="white"/>
</clipPath>
</defs>
</svg>
